# xmcd
#
# Track frame offsets: 
#        150
#        14259
#        26986
#        38530
#        52925
#        61785
#        71860
#        86712
#        100623
#        113676
#        131277
#        141003
#        153962
#        166595
#        176434
#        187311
#        198770
#
# Disc length: 2899 seconds
#
# Revision: 0
# Processed by: cddbd v1.5.2PL0 Copyright (c) Steve Scherf et al.
# Submitted via: ExactAudioCopy v0.95a5
#
DISCID=d40b5111
DTITLE=Vince Ray - Boneshaker Baby
DYEAR=2008
DGENRE=Rock and Roll
TTITLE0=Everybody Smokes In Hell
TTITLE1=Cast Iron Arm
TTITLE2=Boneshaker Baby
TTITLE3=All Women Are Bad
TTITLE4=Wild Guitar
TTITLE5=Johnny Razor's Back
TTITLE6=Jet Black Machine
TTITLE7=Confessions Of A Psychocat
TTITLE8=Voodoo Action
TTITLE9=Blue Rhythm Baby
TTITLE10=Hey Bartender
TTITLE11=Country Folk
TTITLE12=Play It Straight 
TTITLE13=Vern Vain R N R
TTITLE14=Hillbilly Hellcats
TTITLE15=Looking For Johnny
TTITLE16=Women, Liquor, Beer and Poker Dice
EXTD=
EXTT0=
EXTT1=
EXTT2=
EXTT3=
EXTT4=
EXTT5=
EXTT6=
EXTT7=
EXTT8=
EXTT9=
EXTT10=
EXTT11=
EXTT12=
EXTT13=
EXTT14=
EXTT15=
EXTT16=
PLAYORDER=
